<svg width="1811" height="1063" viewBox="0 0 1811 1063" fill="none" xmlns="http://www.w3.org/2000/svg">
<rect width="1811" height="1063" rx="15" fill="#E6E6E6"/>
<path d="M625.8 510.88V536.08C625.8 538.6 626.42 540.54 627.66 541.9C628.9 543.26 630.72 543.94 633.12 543.94C635.52 543.94 637.36 543.26 638.64 541.9C639.92 540.54 640.56 538.6 640.56 536.08V510.88H650.82V536.02C650.82 539.78 650.02 542.96 648.42 545.56C646.82 548.16 644.66 550.12 641.94 551.44C639.26 552.76 636.26 553.42 632.94 553.42C629.62 553.42 626.64 552.78 624 551.5C621.4 550.18 619.34 548.22 617.82 545.62C616.3 542.98 615.54 539.78 615.54 536.02V510.88H625.8ZM668.285 524.26C669.285 522.7 670.665 521.44 672.425 520.48C674.185 519.52 676.245 519.04 678.605 519.04C681.365 519.04 683.865 519.74 686.105 521.14C688.345 522.54 690.105 524.54 691.385 527.14C692.705 529.74 693.365 532.76 693.365 536.2C693.365 539.64 692.705 542.68 691.385 545.32C690.105 547.92 688.345 549.94 686.105 551.38C683.865 552.78 681.365 553.48 678.605 553.48C676.285 553.48 674.225 553 672.425 552.04C670.665 551.08 669.285 549.84 668.285 548.32V568.96H658.025V519.52H668.285V524.26ZM682.925 536.2C682.925 533.64 682.205 531.64 680.765 530.2C679.365 528.72 677.625 527.98 675.545 527.98C673.505 527.98 671.765 528.72 670.325 530.2C668.925 531.68 668.225 533.7 668.225 536.26C668.225 538.82 668.925 540.84 670.325 542.32C671.765 543.8 673.505 544.54 675.545 544.54C677.585 544.54 679.325 543.8 680.765 542.32C682.205 540.8 682.925 538.76 682.925 536.2ZM709.007 508.6V553H698.747V508.6H709.007ZM731.683 553.48C728.403 553.48 725.443 552.78 722.803 551.38C720.203 549.98 718.143 547.98 716.623 545.38C715.143 542.78 714.403 539.74 714.403 536.26C714.403 532.82 715.163 529.8 716.683 527.2C718.203 524.56 720.283 522.54 722.923 521.14C725.563 519.74 728.523 519.04 731.803 519.04C735.083 519.04 738.043 519.74 740.683 521.14C743.323 522.54 745.403 524.56 746.923 527.2C748.443 529.8 749.203 532.82 749.203 536.26C749.203 539.7 748.423 542.74 746.863 545.38C745.343 547.98 743.243 549.98 740.563 551.38C737.923 552.78 734.963 553.48 731.683 553.48ZM731.683 544.6C733.643 544.6 735.303 543.88 736.663 542.44C738.063 541 738.763 538.94 738.763 536.26C738.763 533.58 738.083 531.52 736.723 530.08C735.403 528.64 733.763 527.92 731.803 527.92C729.803 527.92 728.143 528.64 726.823 530.08C725.503 531.48 724.843 533.54 724.843 536.26C724.843 538.94 725.483 541 726.763 542.44C728.083 543.88 729.723 544.6 731.683 544.6ZM752.606 536.2C752.606 532.76 753.246 529.74 754.526 527.14C755.846 524.54 757.626 522.54 759.866 521.14C762.106 519.74 764.606 519.04 767.366 519.04C769.726 519.04 771.786 519.52 773.546 520.48C775.346 521.44 776.726 522.7 777.686 524.26V519.52H787.946V553H777.686V548.26C776.686 549.82 775.286 551.08 773.486 552.04C771.726 553 769.666 553.48 767.306 553.48C764.586 553.48 762.106 552.78 759.866 551.38C757.626 549.94 755.846 547.92 754.526 545.32C753.246 542.68 752.606 539.64 752.606 536.2ZM777.686 536.26C777.686 533.7 776.966 531.68 775.526 530.2C774.126 528.72 772.406 527.98 770.366 527.98C768.326 527.98 766.586 528.72 765.146 530.2C763.746 531.64 763.046 533.64 763.046 536.2C763.046 538.76 763.746 540.8 765.146 542.32C766.586 543.8 768.326 544.54 770.366 544.54C772.406 544.54 774.126 543.8 775.526 542.32C776.966 540.84 777.686 538.82 777.686 536.26ZM793.328 536.2C793.328 532.76 793.968 529.74 795.248 527.14C796.568 524.54 798.348 522.54 800.588 521.14C802.828 519.74 805.328 519.04 808.088 519.04C810.288 519.04 812.288 519.5 814.088 520.42C815.928 521.34 817.368 522.58 818.408 524.14V508.6H828.668V553H818.408V548.2C817.448 549.8 816.068 551.08 814.268 552.04C812.508 553 810.448 553.48 808.088 553.48C805.328 553.48 802.828 552.78 800.588 551.38C798.348 549.94 796.568 547.92 795.248 545.32C793.968 542.68 793.328 539.64 793.328 536.2ZM818.408 536.26C818.408 533.7 817.688 531.68 816.248 530.2C814.848 528.72 813.128 527.98 811.088 527.98C809.048 527.98 807.308 528.72 805.868 530.2C804.468 531.64 803.768 533.64 803.768 536.2C803.768 538.76 804.468 540.8 805.868 542.32C807.308 543.8 809.048 544.54 811.088 544.54C813.128 544.54 814.848 543.8 816.248 542.32C817.688 540.84 818.408 538.82 818.408 536.26ZM883.006 519.52L862.006 568.9H850.966L858.646 551.86L845.026 519.52H856.486L864.226 540.46L871.906 519.52H883.006ZM901.956 553.48C898.676 553.48 895.716 552.78 893.076 551.38C890.476 549.98 888.416 547.98 886.896 545.38C885.416 542.78 884.676 539.74 884.676 536.26C884.676 532.82 885.436 529.8 886.956 527.2C888.476 524.56 890.556 522.54 893.196 521.14C895.836 519.74 898.796 519.04 902.076 519.04C905.356 519.04 908.316 519.74 910.956 521.14C913.596 522.54 915.676 524.56 917.196 527.2C918.716 529.8 919.476 532.82 919.476 536.26C919.476 539.7 918.696 542.74 917.136 545.38C915.616 547.98 913.516 549.98 910.836 551.38C908.196 552.78 905.236 553.48 901.956 553.48ZM901.956 544.6C903.916 544.6 905.576 543.88 906.936 542.44C908.336 541 909.036 538.94 909.036 536.26C909.036 533.58 908.356 531.52 906.996 530.08C905.676 528.64 904.036 527.92 902.076 527.92C900.076 527.92 898.416 528.64 897.096 530.08C895.776 531.48 895.116 533.54 895.116 536.26C895.116 538.94 895.756 541 897.036 542.44C898.356 543.88 899.996 544.6 901.956 544.6ZM957.979 519.52V553H947.719V548.44C946.679 549.92 945.259 551.12 943.459 552.04C941.699 552.92 939.739 553.36 937.579 553.36C935.019 553.36 932.759 552.8 930.799 551.68C928.839 550.52 927.319 548.86 926.239 546.7C925.159 544.54 924.619 542 924.619 539.08V519.52H934.819V537.7C934.819 539.94 935.399 541.68 936.559 542.92C937.719 544.16 939.279 544.78 941.239 544.78C943.239 544.78 944.819 544.16 945.979 542.92C947.139 541.68 947.719 539.94 947.719 537.7V519.52H957.979ZM975.609 525.1C976.809 523.26 978.309 521.82 980.109 520.78C981.909 519.7 983.909 519.16 986.109 519.16V530.02H983.289C980.729 530.02 978.809 530.58 977.529 531.7C976.249 532.78 975.609 534.7 975.609 537.46V553H965.349V519.52H975.609V525.1ZM1008.89 516.04C1007.09 516.04 1005.61 515.52 1004.45 514.48C1003.33 513.4 1002.77 512.08 1002.77 510.52C1002.77 508.92 1003.33 507.6 1004.45 506.56C1005.61 505.48 1007.09 504.94 1008.89 504.94C1010.65 504.94 1012.09 505.48 1013.21 506.56C1014.37 507.6 1014.95 508.92 1014.95 510.52C1014.95 512.08 1014.37 513.4 1013.21 514.48C1012.09 515.52 1010.65 516.04 1008.89 516.04ZM1013.99 519.52V553H1003.73V519.52H1013.99ZM1064.14 519.16C1068.3 519.16 1071.6 520.42 1074.04 522.94C1076.52 525.46 1077.76 528.96 1077.76 533.44V553H1067.56V534.82C1067.56 532.66 1066.98 531 1065.82 529.84C1064.7 528.64 1063.14 528.04 1061.14 528.04C1059.14 528.04 1057.56 528.64 1056.4 529.84C1055.28 531 1054.72 532.66 1054.72 534.82V553H1044.52V534.82C1044.52 532.66 1043.94 531 1042.78 529.84C1041.66 528.64 1040.1 528.04 1038.1 528.04C1036.1 528.04 1034.52 528.64 1033.36 529.84C1032.24 531 1031.68 532.66 1031.68 534.82V553H1021.42V519.52H1031.68V523.72C1032.72 522.32 1034.08 521.22 1035.76 520.42C1037.44 519.58 1039.34 519.16 1041.46 519.16C1043.98 519.16 1046.22 519.7 1048.18 520.78C1050.18 521.86 1051.74 523.4 1052.86 525.4C1054.02 523.56 1055.6 522.06 1057.6 520.9C1059.6 519.74 1061.78 519.16 1064.14 519.16ZM1082.9 536.2C1082.9 532.76 1083.54 529.74 1084.82 527.14C1086.14 524.54 1087.92 522.54 1090.16 521.14C1092.4 519.74 1094.9 519.04 1097.66 519.04C1100.02 519.04 1102.08 519.52 1103.84 520.48C1105.64 521.44 1107.02 522.7 1107.98 524.26V519.52H1118.24V553H1107.98V548.26C1106.98 549.82 1105.58 551.08 1103.78 552.04C1102.02 553 1099.96 553.48 1097.6 553.48C1094.88 553.48 1092.4 552.78 1090.16 551.38C1087.92 549.94 1086.14 547.92 1084.82 545.32C1083.54 542.68 1082.9 539.64 1082.9 536.2ZM1107.98 536.26C1107.98 533.7 1107.26 531.68 1105.82 530.2C1104.42 528.72 1102.7 527.98 1100.66 527.98C1098.62 527.98 1096.88 528.72 1095.44 530.2C1094.04 531.64 1093.34 533.64 1093.34 536.2C1093.34 538.76 1094.04 540.8 1095.44 542.32C1096.88 543.8 1098.62 544.54 1100.66 544.54C1102.7 544.54 1104.42 543.8 1105.82 542.32C1107.26 540.84 1107.98 538.82 1107.98 536.26ZM1138.38 519.04C1140.74 519.04 1142.8 519.52 1144.56 520.48C1146.36 521.44 1147.74 522.7 1148.7 524.26V519.52H1158.96V552.94C1158.96 556.02 1158.34 558.8 1157.1 561.28C1155.9 563.8 1154.04 565.8 1151.52 567.28C1149.04 568.76 1145.94 569.5 1142.22 569.5C1137.26 569.5 1133.24 568.32 1130.16 565.96C1127.08 563.64 1125.32 560.48 1124.88 556.48H1135.02C1135.34 557.76 1136.1 558.76 1137.3 559.48C1138.5 560.24 1139.98 560.62 1141.74 560.62C1143.86 560.62 1145.54 560 1146.78 558.76C1148.06 557.56 1148.7 555.62 1148.7 552.94V548.2C1147.7 549.76 1146.32 551.04 1144.56 552.04C1142.8 553 1140.74 553.48 1138.38 553.48C1135.62 553.48 1133.12 552.78 1130.88 551.38C1128.64 549.94 1126.86 547.92 1125.54 545.32C1124.26 542.68 1123.62 539.64 1123.62 536.2C1123.62 532.76 1124.26 529.74 1125.54 527.14C1126.86 524.54 1128.64 522.54 1130.88 521.14C1133.12 519.74 1135.62 519.04 1138.38 519.04ZM1148.7 536.26C1148.7 533.7 1147.98 531.68 1146.54 530.2C1145.14 528.72 1143.42 527.98 1141.38 527.98C1139.34 527.98 1137.6 528.72 1136.16 530.2C1134.76 531.64 1134.06 533.64 1134.06 536.2C1134.06 538.76 1134.76 540.8 1136.16 542.32C1137.6 543.8 1139.34 544.54 1141.38 544.54C1143.42 544.54 1145.14 543.8 1146.54 542.32C1147.98 540.84 1148.7 538.82 1148.7 536.26ZM1197.94 535.72C1197.94 536.68 1197.88 537.68 1197.76 538.72H1174.54C1174.7 540.8 1175.36 542.4 1176.52 543.52C1177.72 544.6 1179.18 545.14 1180.9 545.14C1183.46 545.14 1185.24 544.06 1186.24 541.9H1197.16C1196.6 544.1 1195.58 546.08 1194.1 547.84C1192.66 549.6 1190.84 550.98 1188.64 551.98C1186.44 552.98 1183.98 553.48 1181.26 553.48C1177.98 553.48 1175.06 552.78 1172.5 551.38C1169.94 549.98 1167.94 547.98 1166.5 545.38C1165.06 542.78 1164.34 539.74 1164.34 536.26C1164.34 532.78 1165.04 529.74 1166.44 527.14C1167.88 524.54 1169.88 522.54 1172.44 521.14C1175 519.74 1177.94 519.04 1181.26 519.04C1184.5 519.04 1187.38 519.72 1189.9 521.08C1192.42 522.44 1194.38 524.38 1195.78 526.9C1197.22 529.42 1197.94 532.36 1197.94 535.72ZM1187.44 533.02C1187.44 531.26 1186.84 529.86 1185.64 528.82C1184.44 527.78 1182.94 527.26 1181.14 527.26C1179.42 527.26 1177.96 527.76 1176.76 528.76C1175.6 529.76 1174.88 531.18 1174.6 533.02H1187.44Z" fill="#646464"/>
</svg>
